<?xml version="1.0" encoding="UTF-8" standalone="no"?><svg xmlns="http://www.w3.org/2000/svg" xmlns:xlink="http://www.w3.org/1999/xlink" contentScriptType="application/ecmascript" contentStyleType="text/css" height="241px" preserveAspectRatio="none" style="width:143px;height:241px;background:#FFFFFF;" version="1.1" viewBox="0 0 143 241" width="143px" zoomAndPan="magnify"><defs><filter height="300%" id="f1aisveavj6wsf" width="300%" x="-1" y="-1"><feGaussianBlur result="blurOut" stdDeviation="2.0"/><feColorMatrix in="blurOut" result="blurOut2" type="matrix" values="0 0 0 0 0 0 0 0 0 0 0 0 0 0 0 0 0 0 .4 0"/><feOffset dx="4.0" dy="4.0" in="blurOut2" result="blurOut3"/><feBlend in="SourceGraphic" in2="blurOut3" mode="normal"/></filter></defs><g><!--MD5=[7115f69ba6e10eeea8be8f41b5ccc74d]
class IDataObject--><rect codeLine="1" fill="#FEFECE" filter="url(#f1aisveavj6wsf)" height="60.8047" id="IDataObject" style="stroke:#A80036;stroke-width:1.5;" width="103" x="16.5" y="7"/><ellipse cx="31.5" cy="23" fill="#B4A7E5" rx="11" ry="11" style="stroke:#A80036;stroke-width:1.0;"/><path d="M32.4531,19.7813 L34.1719,19.7813 C34.5625,19.7813 34.75,19.75 34.875,19.6719 C35.1406,19.5156 35.2813,19.2344 35.2813,18.9375 C35.2813,18.6719 35.1719,18.4063 34.9375,18.2344 C34.7656,18.125 34.625,18.0938 34.1719,18.0938 L29.0313,18.0938 C28.5938,18.0938 28.4688,18.1094 28.3125,18.2031 C28.0625,18.3594 27.9063,18.6563 27.9063,18.9375 C27.9063,19.2188 28.0469,19.4688 28.2656,19.6406 C28.4219,19.75 28.6094,19.7813 29.0313,19.7813 L30.75,19.7813 L30.75,26.2969 L29.0313,26.2969 C28.5938,26.2969 28.4688,26.3125 28.3125,26.4219 C28.0625,26.5781 27.9063,26.8594 27.9063,27.1563 C27.9063,27.4063 28.0469,27.6719 28.2656,27.8281 C28.4219,27.9531 28.625,28 29.0313,28 L34.1719,28 C34.9219,28 35.2813,27.7188 35.2813,27.1563 C35.2813,26.875 35.1719,26.625 34.9375,26.4531 C34.7656,26.3281 34.625,26.2969 34.1719,26.2969 L32.4531,26.2969 L32.4531,19.7813 Z " fill="#000000"/><text fill="#000000" font-family="sans-serif" font-size="12" font-style="italic" lengthAdjust="spacing" textLength="71" x="45.5" y="27.1543">IDataObject</text><line style="stroke:#A80036;stroke-width:1.5;" x1="17.5" x2="118.5" y1="39" y2="39"/><ellipse cx="27.5" cy="50" rx="3" ry="3" style="stroke:#038048;stroke-width:1.0;fill:none;"/><text fill="#000000" font-family="sans-serif" font-size="11" lengthAdjust="spacing" textLength="48" x="36.5" y="53.2104">id: string</text><line style="stroke:#A80036;stroke-width:1.5;" x1="17.5" x2="118.5" y1="59.8047" y2="59.8047"/><!--MD5=[4397ba3f25468a58f081bf0666d83f60]
class IUser--><rect codeLine="4" fill="#FEFECE" filter="url(#f1aisveavj6wsf)" height="99.2188" id="IUser" style="stroke:#A80036;stroke-width:1.5;" width="122" x="7" y="128"/><ellipse cx="48.55" cy="144" fill="#B4A7E5" rx="11" ry="11" style="stroke:#A80036;stroke-width:1.0;"/><path d="M49.5031,140.7813 L51.2219,140.7813 C51.6125,140.7813 51.8,140.75 51.925,140.6719 C52.1906,140.5156 52.3313,140.2344 52.3313,139.9375 C52.3313,139.6719 52.2219,139.4063 51.9875,139.2344 C51.8156,139.125 51.675,139.0938 51.2219,139.0938 L46.0813,139.0938 C45.6438,139.0938 45.5188,139.1094 45.3625,139.2031 C45.1125,139.3594 44.9563,139.6563 44.9563,139.9375 C44.9563,140.2188 45.0969,140.4688 45.3156,140.6406 C45.4719,140.75 45.6594,140.7813 46.0813,140.7813 L47.8,140.7813 L47.8,147.2969 L46.0813,147.2969 C45.6438,147.2969 45.5188,147.3125 45.3625,147.4219 C45.1125,147.5781 44.9563,147.8594 44.9563,148.1563 C44.9563,148.4063 45.0969,148.6719 45.3156,148.8281 C45.4719,148.9531 45.675,149 46.0813,149 L51.2219,149 C51.9719,149 52.3313,148.7188 52.3313,148.1563 C52.3313,147.875 52.2219,147.625 51.9875,147.4531 C51.8156,147.3281 51.675,147.2969 51.2219,147.2969 L49.5031,147.2969 L49.5031,140.7813 Z " fill="#000000"/><text fill="#000000" font-family="sans-serif" font-size="12" font-style="italic" lengthAdjust="spacing" textLength="31" x="68.45" y="148.1543">IUser</text><line style="stroke:#A80036;stroke-width:1.5;" x1="8" x2="128" y1="160" y2="160"/><ellipse cx="18" cy="171" rx="3" ry="3" style="stroke:#038048;stroke-width:1.0;fill:none;"/><text fill="#000000" font-family="sans-serif" font-size="11" lengthAdjust="spacing" textLength="48" x="27" y="174.2104">id: string</text><ellipse cx="18" cy="183.8047" rx="3" ry="3" style="stroke:#038048;stroke-width:1.0;fill:none;"/><text fill="#000000" font-family="sans-serif" font-size="11" lengthAdjust="spacing" textLength="96" x="27" y="187.0151">username: string</text><ellipse cx="18" cy="196.6094" rx="3" ry="3" style="stroke:#038048;stroke-width:1.0;fill:none;"/><text fill="#000000" font-family="sans-serif" font-size="11" lengthAdjust="spacing" textLength="70" x="27" y="199.8198">email: string</text><ellipse cx="18" cy="209.4141" rx="3" ry="3" style="stroke:#038048;stroke-width:1.0;fill:none;"/><text fill="#000000" font-family="sans-serif" font-size="11" lengthAdjust="spacing" textLength="91" x="27" y="212.6245">password: string</text><line style="stroke:#A80036;stroke-width:1.5;" x1="8" x2="128" y1="219.2188" y2="219.2188"/><!--MD5=[f3158ff7ce59843fe28475e5166f1523]
reverse link IDataObject to IUser--><path d="M68,88.491 C68,101.349 68,115.163 68,127.9464 " fill="none" id="IDataObject-backto-IUser" style="stroke:#A80036;stroke-width:1.0;"/><polygon fill="none" points="61.0001,88.104,68,68.104,75.0001,88.104,61.0001,88.104" style="stroke:#A80036;stroke-width:1.0;"/><!--MD5=[6698583bf132bffa837d88037e270de4]
@startuml
interface IDataObject {
    +id: string
}
interface IUser extends IDataObject {
    +id: string
    +username: string
    +email: string
    +password: string
}
@enduml

PlantUML version 1.2021.15beta3(Unknown compile time)
(GPL source distribution)
Java Runtime: Java(TM) SE Runtime Environment
JVM: Java HotSpot(TM) 64-Bit Server VM
Default Encoding: UTF-8
Language: en
Country: US
--></g></svg>